<svg width="212" height="140" viewBox="0 0 212 140" fill="none" xmlns="http://www.w3.org/2000/svg">
    <style>
        @media (prefers-color-scheme: dark) {
            path[fill] {
                fill: #fff;
            }

            path {
                stroke: #fff;
            }

            line {
                stroke: #fff;
            }
        }
    </style>
    <line x1="120.157" y1="84.8502" x2="151.85" y2="132.843" stroke="black" stroke-width="6" stroke-linecap="round"/>
    <line x1="103.157" y1="85.8502" x2="134.85" y2="133.843" stroke="black" stroke-width="6" stroke-linecap="round"/>
    <line x1="90.1566" y1="94.8502" x2="117.159" y2="135.739" stroke="black" stroke-width="6" stroke-linecap="round"/>
    <line x1="121" y1="84.85" x2="147" y2="84.85" stroke="black" stroke-width="6" stroke-linecap="round"/>
    <line x1="64" y1="94.6" x2="90" y2="94.6" stroke="black" stroke-width="6" stroke-linecap="round"/>
    <line x1="103.1" y1="85" x2="103.1" y2="59" stroke="black" stroke-width="6" stroke-linecap="round"/>
    <path d="M103 42C107.971 42 112 46.0294 112 51C112 55.9706 107.971 60 103 60C98.0294 60 94 55.9706 94 51C94 46.0294 98.0294 42 103 42ZM103 55.2448C105.344 55.2448 107.245 53.3444 107.245 51C107.245 48.6556 105.344 46.7552 103 46.7552C100.656 46.7552 98.7552 48.6556 98.7552 51C98.7552 53.3444 100.656 55.2448 103 55.2448Z"
          fill="black"/>
    <path d="M164 85C164 89.9706 159.971 94 155 94C150.029 94 146 89.9706 146 85C146 80.0294 150.029 76 155 76C159.971 76 164 80.0294 164 85ZM150.743 85C150.743 87.3513 152.649 89.2574 155 89.2574C157.351 89.2574 159.257 87.3513 159.257 85C159.257 82.6487 157.351 80.7426 155 80.7426C152.649 80.7426 150.743 82.6487 150.743 85Z"
          fill="black"/>
    <path d="M65 95C65 99.9706 60.9706 104 56 104C51.0294 104 47 99.9706 47 95C47 90.0294 51.0294 86 56 86C60.9706 86 65 90.0294 65 95ZM51.8369 95C51.8369 97.2992 53.7008 99.1631 56 99.1631C58.2992 99.1631 60.1631 97.2992 60.1631 95C60.1631 92.7008 58.2992 90.8369 56 90.8369C53.7008 90.8369 51.8369 92.7008 51.8369 95Z"
          fill="black"/>
    <path d="M132.081 46.7338C136.339 45.2638 140.515 44.1638 144.581 43.413M35.5814 63.2336C33.5814 62.7336 2.19905 67.7344 4.08136 99.7336C5.58136 125.234 29.9147 134.9 42.5814 136.234H137.018C155.364 136.234 174.931 136.48 189.843 125.793C199.85 118.62 208.081 107.499 208.081 91.2338C208.081 57.5356 180.626 36.7576 144.581 43.413M41.0814 76.2336C28.0814 61.2344 35.5814 9.13842 87.0814 4.23435C118.581 1.23477 144.581 27.7344 144.581 43.413"
          stroke="black" stroke-width="7" stroke-linecap="round"/>
</svg>
